<svg width="12" height="12" viewBox="0 0 12 12" fill="none" xmlns="http://www.w3.org/2000/svg">
<path d="M3 1.125L9 1.125C9.207 1.125 9.375 1.293 9.375 1.5C9.375 1.707 9.207 1.875 9 1.875L6.77295 1.875L8.78955 4.42798C9.29355 5.06598 8.83555 6 8.01855 6L6.00952 6C6.29402 6.0025 6.577 6.127 6.771 6.3725L8.78955 8.92798C9.29355 9.56598 8.83555 10.5 8.01855 10.5L3.98145 10.5C3.16445 10.5 2.70645 9.56648 3.21045 8.92798L5.22852 6.3725C5.42252 6.127 5.70647 6.0025 5.99097 6L3.98145 6C3.16445 6 2.70645 5.06648 3.21045 4.42798L5.22705 1.875L3 1.875C2.793 1.875 2.625 1.707 2.625 1.5C2.625 1.293 2.793 1.125 3 1.125Z" fill="white" fill-opacity="0.65"/>
</svg>
