<svg width="12" height="12" viewBox="0 0 12 12" fill="none" xmlns="http://www.w3.org/2000/svg">
<path d="M3 10.875L9 10.875C9.207 10.875 9.375 10.707 9.375 10.5C9.375 10.293 9.207 10.125 9 10.125L6.77295 10.125L8.78955 7.57202C9.29355 6.93402 8.83555 6 8.01855 6L6.00952 6C6.29402 5.9975 6.577 5.873 6.771 5.6275L8.78955 3.07202C9.29355 2.43402 8.83555 1.5 8.01855 1.5L3.98145 1.5C3.16445 1.5 2.70645 2.43352 3.21045 3.07202L5.22852 5.6275C5.42252 5.873 5.70647 5.9975 5.99097 6L3.98145 6C3.16445 6 2.70645 6.93352 3.21045 7.57202L5.22705 10.125L3 10.125C2.793 10.125 2.625 10.293 2.625 10.5C2.625 10.707 2.793 10.875 3 10.875Z" fill="white" fill-opacity="0.65"/>
</svg>
